<?xml version="1.0" encoding="iso-8859-1"?>
<!-- Uploaded to: SVG Repo, www.svgrepo.com, Generator: SVG Repo Mixer Tools -->
<svg fill="#000000" height="800px" width="800px" version="1.1" id="Layer_1" xmlns="http://www.w3.org/2000/svg" xmlns:xlink="http://www.w3.org/1999/xlink" 
	 viewBox="0 0 512.001 512.001" xml:space="preserve">
<g>
	<g>
		<path d="M424.059,128.938c-18.461-1.31-34.489,12.593-35.799,31.054c-1.073,15.105,8.042,28.575,21.502,33.692l-0.037-0.153
			c-0.751-3.14-0.993-6.282-0.783-9.341l-12.317-10.97c-1.894-1.688-2.063-4.592-0.374-6.487l17.292-19.414
			c1.688-1.895,4.592-2.063,6.487-0.376l10.895,9.705c8.225-2.472,16.847-1.441,24.13,2.652
			C453.598,143.226,440.678,130.117,424.059,128.938z"/>
	</g>
</g>
<g>
	<g>
		<circle cx="105.759" cy="162.099" r="33.509"/>
	</g>
</g>
<g>
	<g>
		<path d="M511.852,435.481l-12.013-94.012c-0.944-7.394-6.3-13.467-13.518-15.331l-37.892-9.783l1.621-22.841
			c0,0-0.677,0.326-50.706-41.681l52.299,23.997c11.458,5.255,24.047-4.993,21.099-17.33l-18.099-75.709
			c-1.95-8.155-10.143-13.189-18.297-11.236c-8.155,1.95-13.186,10.142-11.237,18.297l10.847,45.369l-17.963-8.243l-3.745-14.536
			l-19.655-1.394c-13.156-0.933-24.34,9.55-24.24,22.753l0.809,106.435h-7.194l-15.881-125.405
			c-1.13-8.928-9.316-15.091-18.044-13.988c-6.364,0.805-11.373,5.22-13.276,10.923V62.971c0-4.478-3.63-8.108-8.108-8.108h-21.216
			c-4.479,0-8.107,3.63-8.107,8.108c0,41.397,0,218,0,228.893h-98.63c12.759-2.382,21.043-3.927,34.12-6.368
			c8.243-1.539,13.677-9.468,12.139-17.711c-1.539-8.244-9.466-13.678-17.711-12.14l-0.859,0.16
			c-7.451-16.593-7.947-17.699-12.91-28.754c-2.434-5.423-8.803-7.845-14.227-5.411c-5.423,2.435-7.845,8.805-5.41,14.227
			c5.64,12.561,3.504,7.804,10.776,24.002l-32.655,6.095l-42.663-37.146l26.43,13.551l0.331-4.672
			c0.885-12.47-8.507-23.299-20.978-24.183l-38.423-2.726c-13.155-0.934-24.339,9.55-24.24,22.753l0.81,106.434h-7.194
			L32.163,214.57c-1.12-8.846-9.208-15.102-18.044-13.988c-8.846,1.12-15.109,9.199-13.989,18.044l17.669,139.52
			c1.022,8.067,7.885,14.116,16.017,14.116h44.083v47.667H67.501c-2.854,0-5.592,1.134-7.611,3.152l-15.218,15.218
			c-4.203,4.203-4.203,11.018,0,15.221c4.203,4.202,11.018,4.202,15.221,0l12.065-12.065h32.317l12.065,12.065
			c4.205,4.203,11.019,4.202,15.221,0c4.203-4.203,4.204-11.018,0-15.221l-15.216-15.217c-2.019-2.018-4.756-3.152-7.611-3.152
			h-9.311v-47.667h35.007c6.496,0,12.081-3.845,14.642-9.376c0-14.945,0-28.664,0-43.594l-16.493-4.258l0.382-5.381
			c-3.026-2.454-0.493,0.646-41.596-57.936l48.202,41.968c5.974,5.203,12.369,3.546,14.766,3.1
			c-9.63,9.945-3.032,26.726,10.883,27.332v33.661c8.285-4.745,14.956-4.198,21.526-4.198v-29.427h92.593
			c0,29.698,0,34.092,0,61.277c-0.001-8.336-6.76-15.093-15.096-15.093h-13.872c0-11.631,0.309-13.216-1.099-16.757
			c-2.273-5.717-7.851-9.776-14.369-9.776h-23.998c-8.503,0-15.467,6.986-15.467,15.467v11.066h-14.443
			c-8.337,0-15.096,6.758-15.096,15.096v57.148c0,8.336,6.758,14.554,15.096,14.554h83.249c8.336,0,15.094-6.215,15.096-14.55v6.443
			c0,4.477,3.63,8.108,8.107,8.108c6.344,0,14.912,0,21.218,0c4.479,0,8.107-3.63,8.107-8.108V224.522l16.956,133.891
			c1.011,7.985,7.854,14.116,16.017,14.116c17.428,0,26.925,0,44.083,0v47.667h-10.397c-2.854,0-5.592,1.134-7.611,3.152
			l-15.218,15.217c-4.203,4.203-4.204,11.017,0,15.221c4.203,4.203,11.018,4.203,15.221,0l12.065-12.065H420.2l12.065,12.065
			c4.204,4.203,11.018,4.202,15.221,0c4.203-4.203,4.203-11.018,0-15.221l-15.217-15.217c-2.018-2.018-4.756-3.152-7.611-3.152
			h-9.311v-47.667h35.007c7.131,0,13.17-4.629,15.308-11.04l10.045,78.612c1.272,9.963,10.375,17.038,20.381,15.762
			C506.07,454.587,513.126,445.462,511.852,435.481z M236.531,370.338h-27.258v-11.066c0-0.899,0.731-1.63,1.63-1.63h23.998
			c0.899,0,1.63,0.731,1.63,1.63V370.338z"/>
	</g>
</g>
</svg>