<svg width="463" height="260" viewBox="0 0 463 260" fill="none" xmlns="http://www.w3.org/2000/svg">
<g clip-path="url(#clip0_2204_36901)">
<path d="M0 4C0 1.79086 1.79086 0 4 0H459C461.209 0 463 1.79086 463 4V256C463 258.209 461.209 260 459 260H4.00001C1.79087 260 0 258.209 0 256V4Z" fill="url(#paint0_linear_2204_36901)"/>
<g style="mix-blend-mode:soft-light" opacity="0.2">
<path d="M20.9518 277.584L187.609 713.969L534.829 110.976L368.111 -325.305L20.9518 277.584Z" fill="white"/>
</g>
<g style="mix-blend-mode:soft-light" opacity="0.2">
<path d="M138.745 338.818L305.402 775.203L652.622 172.21L485.904 -264.071L138.745 338.818Z" fill="white"/>
</g>
<g style="mix-blend-mode:soft-light" opacity="0.2">
<path d="M257.585 338.818L424.242 775.203L771.462 172.21L604.744 -264.071L257.585 338.818Z" fill="white"/>
</g>
<g style="mix-blend-mode:soft-light" opacity="0.5">
<path d="M197.158 286.113L208.312 315.32L231.552 274.961L220.394 245.761L197.158 286.113Z" fill="white"/>
<path d="M223.353 240.816L234.508 270.024L257.748 229.665L246.589 200.464L223.353 240.816Z" fill="white"/>
<path d="M249.552 195.52L260.707 224.727L283.947 184.368L272.788 155.168L249.552 195.52Z" fill="white"/>
<path d="M275.748 150.223L286.902 179.431L310.142 139.072L298.984 109.871L275.748 150.223Z" fill="white"/>
<path d="M354.334 14.3334L365.488 43.5412L388.728 3.18219L377.569 -26.0186L354.334 14.3334Z" fill="white"/>
<path d="M301.943 104.927L313.098 134.134L336.337 93.7754L325.179 64.5746L301.943 104.927Z" fill="white"/>
<path d="M328.138 59.63L339.293 88.8378L362.533 48.4788L351.374 19.278L328.138 59.63Z" fill="white"/>
<path d="M270.16 267.794L239.231 272.746L262.621 232.473L293.546 227.529L270.16 267.794Z" fill="white"/>
<path d="M296.355 222.498L265.426 227.449L288.816 187.177L319.742 182.233L296.355 222.498Z" fill="white"/>
<path d="M322.551 177.201L291.621 182.152L315.012 141.88L345.937 136.936L322.551 177.201Z" fill="white"/>
<path d="M401.14 41.3116L370.211 46.2628L393.602 5.99067L424.527 1.04647L401.14 41.3116Z" fill="white"/>
<path d="M348.75 131.905L317.82 136.856L341.211 96.5839L372.136 91.6397L348.75 131.905Z" fill="white"/>
<path d="M427.336 -3.9849L396.406 0.96626L419.797 -39.3059L450.722 -44.2501L427.336 -3.9849Z" fill="white"/>
<path d="M374.945 86.6082L344.016 91.5594L367.406 51.2873L398.332 46.3431L374.945 86.6082Z" fill="white"/>
</g>
</g>
<defs>
<linearGradient id="paint0_linear_2204_36901" x1="376.768" y1="-3.69668" x2="-37.46" y2="171.361" gradientUnits="userSpaceOnUse">
<stop stop-color="#C61521"/>
<stop offset="0.619792" stop-color="#D34319"/>
<stop offset="1" stop-color="#F26522"/>
</linearGradient>
<clipPath id="clip0_2204_36901">
<path d="M0 4C0 1.79086 1.79086 0 4 0H459C461.209 0 463 1.79086 463 4V256C463 258.209 461.209 260 459 260H4.00001C1.79087 260 0 258.209 0 256V4Z" fill="white"/>
</clipPath>
</defs>
</svg>
